<?xml version="1.0" standalone="no"?>
<!DOCTYPE svg PUBLIC "-//W3C//DTD SVG 20010904//EN"
 "http://www.w3.org/TR/2001/REC-SVG-20010904/DTD/svg10.dtd">
<svg version="1.0" xmlns="http://www.w3.org/2000/svg"
 width="384.000000pt" height="384.000000pt" viewBox="0 0 384.000000 384.000000"
 preserveAspectRatio="xMidYMid meet">
<metadata>
Created by potrace 1.11, written by Peter Selinger 2001-2013
</metadata>
<g transform="translate(0.000000,384.000000) scale(0.100000,-0.100000)"
fill="#000000" stroke="none">
<path d="M979 3825 c-66 -37 -82 -128 -33 -186 11 -12 14 -89 14 -387 l0 -372
-377 0 c-344 0 -378 1 -396 18 -27 24 -104 23 -139 -3 -47 -34 -59 -93 -32
-150 30 -64 127 -83 179 -35 21 19 33 20 393 20 l372 0 0 -820 0 -820 -377 0
c-325 0 -379 2 -393 15 -49 44 -145 21 -175 -42 -56 -117 80 -223 182 -143 25
19 40 20 394 20 l369 0 0 -361 c0 -353 0 -362 -21 -391 -43 -60 -19 -147 48
-174 45 -19 72 -17 111 6 59 36 73 114 31 172 -18 26 -19 47 -19 388 l0 360
820 0 820 0 0 -365 c0 -308 -2 -366 -14 -371 -16 -6 -36 -55 -36 -86 0 -66 70
-125 136 -115 89 15 128 98 84 180 -19 35 -20 56 -20 397 l0 360 362 0 c350 0
362 -1 383 -20 69 -65 195 -7 195 90 0 36 -28 85 -61 104 -36 21 -100 17 -128
-8 -15 -14 -64 -16 -384 -16 l-367 0 0 820 0 820 363 0 c350 0 365 -1 382 -20
23 -26 75 -35 117 -21 47 16 73 56 73 113 0 40 -5 53 -33 80 -28 28 -39 33
-81 33 -33 0 -55 -6 -68 -17 -18 -16 -51 -18 -386 -18 l-367 0 0 377 c0 344 1
378 18 396 11 13 17 35 17 67 0 147 -208 161 -232 16 -5 -34 20 -106 38 -106
5 0 9 -164 9 -375 l0 -375 -820 0 -820 0 0 370 c0 351 1 372 19 398 40 55 29
133 -23 168 -36 23 -95 27 -127 9z m577 -1317 l-1 -223 -222 -1 -223 -1 0 224
0 223 224 0 223 0 -1 -222z m595 210 c1 -16 1 -397 0 -419 -1 -14 -27 -16
-221 -16 l-220 1 -1 35 c-1 46 -1 382 0 399 1 18 441 18 442 0z m599 -211 l0
-223 -220 -1 c-121 0 -221 3 -222 6 0 3 -2 104 -3 224 l-2 217 223 0 224 0 0
-223z m-1199 -376 c3 -1 6 -100 6 -221 l0 -220 -41 -1 c-51 -1 -376 -1 -393 0
-10 1 -13 52 -13 219 0 120 2 221 4 223 3 3 409 3 437 0z m584 0 c19 -1 20 -7
18 -208 -1 -115 -2 -215 -2 -223 -1 -13 -31 -15 -213 -13 -117 1 -217 2 -223
2 -6 1 -9 76 -8 209 2 252 0 230 20 234 13 2 333 2 408 -1z m603 0 c9 -1 12
-52 12 -221 0 -169 -3 -220 -12 -221 -18 -1 -399 -1 -419 0 -14 1 -16 27 -16
219 0 119 3 219 8 222 5 4 372 5 427 1z m-1182 -818 l1 -223 -224 0 -223 0 0
223 0 224 223 -1 222 -1 1 -222z m595 203 c1 -28 1 -341 0 -389 l-1 -37 -222
2 -221 3 0 208 c1 114 2 213 2 220 1 11 46 13 221 14 217 0 220 0 221 -21z
m599 -202 l0 -224 -223 0 -224 0 2 223 c1 122 2 222 3 222 1 1 101 1 222 2
l220 1 0 -224z"/>
</g>
</svg>
