<?xml version="1.0" standalone="no"?>
<!DOCTYPE svg PUBLIC "-//W3C//DTD SVG 20010904//EN"
 "http://www.w3.org/TR/2001/REC-SVG-20010904/DTD/svg10.dtd">
<svg version="1.0" xmlns="http://www.w3.org/2000/svg"
 width="16.000000pt" height="16.000000pt" viewBox="0 0 16.000000 16.000000"
 preserveAspectRatio="xMidYMid meet">
<metadata>
Created by potrace 1.11, written by Peter Selinger 2001-2013
</metadata>
<g transform="translate(0.000000,16.000000) scale(0.003747,-0.003747)"
fill="#000000" stroke="none">
<path d="M1082 4250 c-67 -41 -82 -129 -34 -197 19 -27 20 -42 18 -438 l-1
-410 -415 -1 c-382 -1 -417 0 -437 16 -81 64 -213 -1 -213 -103 0 -65 50 -123
115 -132 44 -7 72 2 110 35 18 16 53 17 430 16 l410 -1 0 -910 0 -910 -405 -1
-405 -1 -48 24 c-56 28 -96 27 -144 -2 -93 -55 -75 -200 29 -234 18 -6 42 -9
53 -6 11 2 25 4 32 4 6 1 25 12 41 26 l30 25 409 0 410 -1 1 -400 0 -400 -24
-36 c-35 -52 -35 -99 -1 -150 23 -34 81 -64 113 -58 10 2 27 4 36 4 25 1 77
58 86 94 10 38 -3 94 -28 122 -16 19 -17 50 -16 420 l1 400 910 0 910 0 0
-395 1 -395 -24 -33 c-69 -92 -8 -218 105 -216 105 3 159 102 108 198 l-25 47
0 399 1 399 397 0 397 0 38 -26 c94 -65 212 -7 211 104 -1 51 -25 88 -73 117
-37 22 -107 16 -137 -12 -17 -16 -54 -17 -426 -17 l-407 0 0 911 0 910 399 0
c398 -1 398 -1 429 -24 92 -68 214 -9 214 103 0 97 -90 156 -183 119 -22 -9
-40 -20 -40 -24 0 -4 -183 -7 -407 -6 l-408 1 -2 413 c-2 401 -2 414 18 441
24 33 31 96 13 131 -49 98 -185 104 -236 9 -29 -54 -22 -103 21 -152 14 -17
16 -66 17 -420 0 -221 -1 -407 -4 -413 -2 -9 -233 -12 -895 -12 -491 -1 -899
1 -908 4 -14 4 -16 48 -15 413 1 329 4 411 15 424 57 70 34 180 -44 213 -47
19 -84 18 -123 -6z m648 -1462 l0 -248 -248 0 -249 0 2 248 c1 136 3 247 3
248 1 0 112 1 247 0 l245 0 0 -248z m662 27 c0 -121 -1 -232 -1 -248 l-1 -27
-247 2 -247 3 -1 240 c-1 132 0 243 1 246 2 3 114 5 250 5 l247 -1 -1 -220z
m661 211 c2 -6 3 -117 3 -246 l-1 -235 -248 -3 -247 -2 0 248 0 248 245 0
c166 1 245 -3 248 -10z m-1323 -898 c0 -214 -2 -248 -15 -249 -8 0 -71 0 -140
0 -69 0 -174 0 -233 0 l-109 1 1 238 c1 130 4 242 8 247 4 6 97 10 247 10
l241 0 0 -247z m661 232 c3 -72 1 -472 -3 -475 -8 -8 -477 -9 -485 -1 -4 4 -7
114 -8 244 0 220 1 237 18 242 10 3 121 5 248 5 197 0 229 -2 230 -15z m656 6
c4 -4 8 -115 8 -247 l0 -239 -25 0 c-43 -1 -434 -1 -452 -1 -17 1 -18 20 -18
249 l0 247 240 0 c131 -1 243 -4 247 -9z m-1319 -904 l-3 -247 -235 -1 c-129
0 -240 1 -246 3 -7 3 -11 80 -11 248 l0 244 96 3 c53 2 165 2 249 0 l152 -3
-2 -247z m660 243 c4 -4 5 -62 3 -365 l-1 -126 -242 1 c-134 0 -245 3 -248 6
-4 6 -5 471 -1 489 1 6 483 1 489 -5z m577 5 l90 0 0 -243 c1 -133 -2 -244 -6
-247 -4 -3 -115 -5 -246 -5 l-238 0 -5 135 c-3 74 -4 185 -2 247 l3 112 32 3
c18 2 88 2 157 1 69 -1 166 -3 215 -3z"/>
</g>
</svg>
