<?xml version="1.0" encoding="UTF-8"?>
<!DOCTYPE svg PUBLIC "-//W3C//DTD SVG 1.1//EN" "http://www.w3.org/Graphics/SVG/1.1/DTD/svg11.dtd">
<svg version="1.1" xmlns="http://www.w3.org/2000/svg" xmlns:xlink="http://www.w3.org/1999/xlink" x="0" y="0" width="384" height="384" viewBox="0, 0, 384, 384">
  <g id="Layer_1">
    <path d="M372,271 C368.468,271 365.303,272.535 363.107,274.963 L289.962,274.963 L289.962,111.037 L362.293,111.037 C364.474,114.04 368.003,116 371.999,116 C378.627,116 383.999,110.628 383.999,104 C383.999,97.372 378.627,92 371.999,92 C368.431,92 365.236,93.565 363.038,96.037 L289.962,96.037 L289.962,20.96 C292.435,18.763 294,15.568 294,12 C294,5.372 288.628,0 282,0 C275.372,0 270,5.372 270,12 C270,15.995 271.96,19.524 274.963,21.706 L274.963,96.037 L111.037,96.037 L111.037,21.359 C113.778,19.16 115.537,15.788 115.537,12 C115.537,5.372 110.165,0 103.537,0 C96.909,0 91.537,5.372 91.537,12 C91.537,15.788 93.296,19.16 96.037,21.359 L96.037,96.037 L20.961,96.037 C18.763,93.565 15.568,92 12,92 C5.372,92 0,97.372 0,104 C0,110.628 5.372,116 12,116 C15.996,116 19.525,114.04 21.706,111.037 L96.037,111.037 L96.037,274.963 L20.893,274.963 C18.697,272.535 15.532,271 12,271 C5.372,271 0,276.372 0,283 C0,289.628 5.372,295 12,295 C16.029,295 19.585,293.008 21.762,289.963 L96.037,289.963 L96.037,362.641 C93.296,364.84 91.537,368.212 91.537,372 C91.537,378.628 96.909,384 103.537,384 C110.165,384 115.537,378.628 115.537,372 C115.537,368.212 113.778,364.84 111.037,362.641 L111.037,289.963 L274.963,289.963 L274.963,362.294 C271.96,364.476 270,368.005 270,372 C270,378.628 275.372,384 282,384 C288.628,384 294,378.628 294,372 C294,368.432 292.435,365.237 289.963,363.04 L289.963,289.963 L362.238,289.963 C364.415,293.008 367.97,295 372,295 C378.628,295 384,289.628 384,283 C384,276.372 378.628,271 372,271 z M170.679,215.321 L170.679,170.678 L215.322,170.678 L215.322,215.321 L170.679,215.321 z M215.321,230.321 L215.321,274.963 L170.678,274.963 L170.678,230.321 L215.321,230.321 z M111.037,170.679 L155.679,170.679 L155.679,215.322 L111.037,215.322 L111.037,170.679 z M170.679,155.679 L170.679,111.037 L215.322,111.037 L215.322,155.679 L170.679,155.679 z M230.321,170.679 L274.963,170.679 L274.963,215.322 L230.321,215.322 L230.321,170.679 z M274.963,155.679 L230.321,155.679 L230.321,111.037 L274.963,111.037 L274.963,155.679 z M155.679,111.037 L155.679,155.679 L111.037,155.679 L111.037,111.037 L155.679,111.037 z M111.037,230.321 L155.679,230.321 L155.679,274.963 L111.037,274.963 L111.037,230.321 z M230.321,274.963 L230.321,230.321 L274.963,230.321 L274.963,274.963 L230.321,274.963 z" fill="#127BB9"/>
  </g>
</svg>
